<svg width="16" height="16" viewBox="0 0 16 16" xmlns="http://www.w3.org/2000/svg">
  <!-- Fondo del icono -->
  <rect width="16" height="16" rx="2" fill="#1e40af"/>
  
  <!-- Cuerpo principal del tren -->
  <rect x="2" y="6" width="12" height="6" rx="1" fill="#ffffff"/>
  
  <!-- Cabina del conductor -->
  <rect x="11" y="4" width="3" height="4" rx="0.5" fill="#ffffff"/>
  
  <!-- Ventanas -->
  <rect x="3" y="7" width="2" height="1.5" rx="0.25" fill="#1e40af"/>
  <rect x="6" y="7" width="2" height="1.5" rx="0.25" fill="#1e40af"/>
  <rect x="9" y="7" width="1.5" height="1.5" rx="0.25" fill="#1e40af"/>
  <rect x="12" y="5" width="1" height="1" rx="0.25" fill="#1e40af"/>
  
  <!-- Ruedas -->
  <circle cx="4" cy="13" r="1.25" fill="#374151"/>
  <circle cx="8" cy="13" r="1.25" fill="#374151"/>
  <circle cx="12" cy="13" r="1.25" fill="#374151"/>
  
  <!-- Centros de las ruedas -->
  <circle cx="4" cy="13" r="0.5" fill="#ffffff"/>
  <circle cx="8" cy="13" r="0.5" fill="#ffffff"/>
  <circle cx="12" cy="13" r="0.5" fill="#ffffff"/>
  
  <!-- Chimenea -->
  <rect x="13" y="2" width="1" height="2" fill="#ffffff"/>
  
  <!-- Humo -->
  <circle cx="14" cy="1.5" r="0.5" fill="#d1d5db" opacity="0.7"/>
</svg>
